0
SECTION
2
HEADER
9
$INSUNITS
70
4
0
ENDSEC
0
SECTION
2
TABLES
0
TABLE
2
LTYPE
0
LTYPE
72
65
70
0
2
CONTINUOUS
3
______
73
0
40
0
0
LTYPE
72
65
70
0
2
DASHED
3
_ _ _ 
73
2
40
7.5
49
5
49
-2.5
0
LTYPE
72
65
70
0
2
DOTTED
3
. . . 
73
2
40
1.5
49
0.5
49
-1
0
ENDTAB
0
TABLE
2
LAYER
0
ENDTAB
0
ENDSEC
0
SECTION
2
ENTITIES
0
LINE
8
0
6
CONTINUOUS
10
-9
20
-13.5
11
27
21
-13.5
0
ARC
8
0
6
CONTINUOUS
10
27
20
-8.5
40
5
50
270
51
360
0
LINE
8
0
6
CONTINUOUS
10
32
20
-8.5
11
32
21
-7.5
0
LINE
8
0
6
CONTINUOUS
10
34
20
-5.5
11
45
21
-5.5
0
ARC
8
0
6
CONTINUOUS
10
45
20
-0.5
40
5
50
270
51
334.6230664
0
LINE
8
0
6
CONTINUOUS
10
51.3245553
20
-1.5
11
58
21
-1.5
0
LINE
8
0
6
CONTINUOUS
10
58
20
-1.5
11
58
21
-2.5
0
ARC
8
0
6
CONTINUOUS
10
63
20
-2.5
40
5
50
180
51
270
0
LINE
8
0
6
CONTINUOUS
10
63
20
-7.5
11
75.1990406
21
-7.5
0
ARC
8
0
6
CONTINUOUS
10
81.6607207
20
-6.8080323
40
5
50
202.6168502
51
259.9999989
0
LINE
8
0
6
CONTINUOUS
10
80.7924797
20
-11.7320711
11
91.7960681
21
-13.6723007
0
ARC
8
0
6
CONTINUOUS
10
98.3953408
20
-14.7786792
40
5
50
187.0837235
51
250.0000008
0
LINE
8
0
6
CONTINUOUS
10
96.6852402
20
-19.4771423
11
112.6600146
21
-25.2914847
0
ARC
8
0
6
CONTINUOUS
10
114.3701153
20
-20.5930216
40
5
50
250.0000002
51
255.7391695
0
ARC
8
0
6
CONTINUOUS
10
115.309808
20
-20.9350418
40
5
50
244.2608274
51
250.0000002
0
LINE
8
0
6
CONTINUOUS
10
113.5997073
20
-25.6335049
11
129.5744818
21
-31.4478473
0
ARC
8
0
6
CONTINUOUS
10
131.2845825
20
-26.7493842
40
5
50
250.0000002
51
340
0
LINE
8
0
6
CONTINUOUS
10
135.9830456
20
-28.4594849
11
144.6710151
21
-4.5894849
0
ARC
8
0
6
CONTINUOUS
10
141.3309929
20
-0.6090009
40
5
50
318.2132086
51
340.0000002
0
LINE
8
0
6
CONTINUOUS
10
146.029456
20
-2.3191016
11
151.8437984
21
13.6556731
0
ARC
8
0
6
CONTINUOUS
10
147.1453353
20
15.3657737
40
5
50
340.0000008
51
70.0000008
0
LINE
8
0
6
CONTINUOUS
10
148.8554359
20
20.0642368
11
131.9409687
21
26.2205994
0
ARC
8
0
6
CONTINUOUS
10
130.2308681
20
21.5221363
40
5
50
70.0000008
51
160.0000002
0
LINE
8
0
6
CONTINUOUS
10
125.532405
20
23.232237
11
122
21
13.5270339
0
LINE
8
0
6
CONTINUOUS
10
122
20
13.5270339
11
122
21
80.5
0
ARC
8
0
6
CONTINUOUS
10
117
20
80.5
40
5
50
360
51
90
0
LINE
8
0
6
CONTINUOUS
10
85.8989795
20
85.5
11
117
21
85.5
0
ARC
8
0
6
CONTINUOUS
10
81
20
82.5
40
5
50
45.5846913
51
90
0
LINE
8
0
6
CONTINUOUS
10
81
20
87.5
11
68
21
87.5
0
LINE
8
0
6
CONTINUOUS
10
68
20
87.5
11
68
21
88.5
0
ARC
8
0
6
CONTINUOUS
10
63
20
88.5
40
5
50
0
51
90
0
LINE
8
0
6
CONTINUOUS
10
63
20
93.5
11
45
21
93.5
0
ARC
8
0
6
CONTINUOUS
10
45
20
88.5
40
5
50
90
51
154.6230664
0
LINE
8
0
6
CONTINUOUS
10
38.6754447
20
89.5
11
27
21
89.5
0
ARC
8
0
6
CONTINUOUS
10
27
20
84.5
40
5
50
90
51
180
0
LINE
8
0
6
CONTINUOUS
10
22
20
84.5
11
22
21
83.5
0
LINE
8
0
6
CONTINUOUS
10
-9
20
81.5
11
20
21
81.5
0
ARC
8
0
6
CONTINUOUS
10
-9
20
76.5
40
5
50
90
51
180
0
LINE
8
0
6
CONTINUOUS
10
-14
20
-8.5
11
-14
21
76.5
0
ARC
8
0
6
CONTINUOUS
10
-9
20
-8.5
40
5
50
180
51
270
0
LINE
8
0
6
CONTINUOUS
10
303
20
-13.5
11
339
21
-13.5
0
ARC
8
0
6
CONTINUOUS
10
339
20
-8.5
40
5
50
270
51
360
0
LINE
8
0
6
CONTINUOUS
10
344
20
-8.5
11
344
21
76.5
0
ARC
8
0
6
CONTINUOUS
10
339
20
76.5
40
5
50
0
51
90
0
LINE
8
0
6
CONTINUOUS
10
310
20
81.5
11
339
21
81.5
0
LINE
8
0
6
CONTINUOUS
10
308
20
83.5
11
308
21
84.5
0
ARC
8
0
6
CONTINUOUS
10
303
20
84.5
40
5
50
0
51
90
0
LINE
8
0
6
CONTINUOUS
10
303
20
89.5
11
291.3245553
21
89.5
0
ARC
8
0
6
CONTINUOUS
10
285
20
88.5
40
5
50
25.3769336
51
90
0
LINE
8
0
6
CONTINUOUS
10
285
20
93.5
11
267
21
93.5
0
ARC
8
0
6
CONTINUOUS
10
267
20
88.5
40
5
50
90
51
180
0
LINE
8
0
6
CONTINUOUS
10
262
20
88.5
11
262
21
87.5
0
LINE
8
0
6
CONTINUOUS
10
262
20
87.5
11
249
21
87.5
0
ARC
8
0
6
CONTINUOUS
10
249
20
82.5
40
5
50
90
51
134.4153087
0
LINE
8
0
6
CONTINUOUS
10
213
20
85.5
11
244.1010205
21
85.5
0
ARC
8
0
6
CONTINUOUS
10
213
20
80.5
40
5
50
90
51
180
0
LINE
8
0
6
CONTINUOUS
10
208
20
13.5270339
11
208
21
80.5
0
LINE
8
0
6
CONTINUOUS
10
208
20
13.5270339
11
204.467595
21
23.232237
0
ARC
8
0
6
CONTINUOUS
10
199.7691319
20
21.5221363
40
5
50
19.9999998
51
109.9999998
0
LINE
8
0
6
CONTINUOUS
10
198.0590312
20
26.2205994
11
181.144564
21
20.0642368
0
ARC
8
0
6
CONTINUOUS
10
182.8546647
20
15.3657737
40
5
50
110
51
199.9999992
0
LINE
8
0
6
CONTINUOUS
10
178.1562016
20
13.6556731
11
183.970544
21
-2.3191016
0
ARC
8
0
6
CONTINUOUS
10
188.6690071
20
-0.6090009
40
5
50
199.9999998
51
221.7867914
0
LINE
8
0
6
CONTINUOUS
10
185.3289849
20
-4.5894849
11
194.0169544
21
-28.4594849
0
ARC
8
0
6
CONTINUOUS
10
198.7154175
20
-26.7493842
40
5
50
200
51
289.9999998
0
LINE
8
0
6
CONTINUOUS
10
200.4255182
20
-31.4478473
11
216.4002927
21
-25.6335049
0
ARC
8
0
6
CONTINUOUS
10
214.690192
20
-20.9350418
40
5
50
289.9999998
51
295.7391726
0
ARC
8
0
6
CONTINUOUS
10
215.6298847
20
-20.5930216
40
5
50
284.2608305
51
289.9999998
0
LINE
8
0
6
CONTINUOUS
10
217.3399854
20
-25.2914847
11
233.3147598
21
-19.4771423
0
ARC
8
0
6
CONTINUOUS
10
231.6046592
20
-14.7786792
40
5
50
289.9999992
51
352.9162765
0
LINE
8
0
6
CONTINUOUS
10
238.2039319
20
-13.6723007
11
249.2075203
21
-11.7320711
0
ARC
8
0
6
CONTINUOUS
10
248.3392793
20
-6.8080323
40
5
50
280.0000011
51
337.3831498
0
LINE
8
0
6
CONTINUOUS
10
254.8009594
20
-7.5
11
267
21
-7.5
0
ARC
8
0
6
CONTINUOUS
10
267
20
-2.5
40
5
50
270
51
360
0
LINE
8
0
6
CONTINUOUS
10
272
20
-2.5
11
272
21
-1.5
0
LINE
8
0
6
CONTINUOUS
10
272
20
-1.5
11
278.6754447
21
-1.5
0
ARC
8
0
6
CONTINUOUS
10
285
20
-0.5
40
5
50
205.3769336
51
270
0
LINE
8
0
6
CONTINUOUS
10
285
20
-5.5
11
296
21
-5.5
0
LINE
8
0
6
CONTINUOUS
10
298
20
-7.5
11
298
21
-8.5
0
ARC
8
0
6
CONTINUOUS
10
303
20
-8.5
40
5
50
180
51
270
0
ARC
8
0
6
CONTINUOUS
10
34
20
-7.5
40
2
50
90
51
180
0
ARC
8
0
6
CONTINUOUS
10
51.3245553
20
-3.5
40
2
50
90
51
154.6230664
0
ARC
8
0
6
CONTINUOUS
10
75.1990406
20
-9.5
40
2
50
22.6168502
51
90
0
ARC
8
0
6
CONTINUOUS
10
81.1397761
20
-9.7624556
40
2
50
259.9999989
51
259.9999992
0
ARC
8
0
6
CONTINUOUS
10
91.4487717
20
-15.6419162
40
2
50
7.0837235
51
79.9999992
0
ARC
8
0
6
CONTINUOUS
10
97.3692804
20
-17.5977571
40
2
50
250.0000008
51
250.0000019
0
ARC
8
0
6
CONTINUOUS
10
146.5504004
20
-5.2735251
40
2
50
138.2132086
51
160.0000019
0
ARC
8
0
6
CONTINUOUS
10
149.9644132
20
14.3397133
40
2
50
340.0000008
51
340.0000019
0
ARC
8
0
6
CONTINUOUS
10
148.1713957
20
18.1848516
40
2
50
70.0000008
51
70.0000019
0
ARC
8
0
6
CONTINUOUS
10
131.2569285
20
24.3412142
40
2
50
70.0000008
51
70.0000019
0
ARC
8
0
6
CONTINUOUS
10
85.8989795
20
87.5
40
2
50
225.5846913
51
270
0
ARC
8
0
6
CONTINUOUS
10
38.6754447
20
91.5
40
2
50
270
51
334.6230664
0
ARC
8
0
6
CONTINUOUS
10
20
20
83.5
40
2
50
270
51
0
0
ARC
8
0
6
CONTINUOUS
10
310
20
83.5
40
2
50
180
51
270
0
ARC
8
0
6
CONTINUOUS
10
291.3245553
20
91.5
40
2
50
205.3769336
51
270
0
ARC
8
0
6
CONTINUOUS
10
244.1010205
20
87.5
40
2
50
270
51
314.4153087
0
ARC
8
0
6
CONTINUOUS
10
180.0355868
20
14.3397133
40
2
50
199.9999981
51
199.9999992
0
ARC
8
0
6
CONTINUOUS
10
183.4495996
20
-5.2735251
40
2
50
19.9999981
51
41.7867914
0
ARC
8
0
6
CONTINUOUS
10
232.6307196
20
-17.5977571
40
2
50
289.9999981
51
289.9999992
0
ARC
8
0
6
CONTINUOUS
10
238.5512283
20
-15.6419162
40
2
50
100.0000008
51
172.9162765
0
ARC
8
0
6
CONTINUOUS
10
248.8602239
20
-9.7624556
40
2
50
280.0000008
51
280.0000011
0
ARC
8
0
6
CONTINUOUS
10
254.8009594
20
-9.5
40
2
50
90
51
157.3831498
0
ARC
8
0
6
CONTINUOUS
10
278.6754447
20
-3.5
40
2
50
25.3769336
51
90
0
ARC
8
0
6
CONTINUOUS
10
296
20
-7.5
40
2
50
0
51
90
0
ENDSEC
0
EOF