0
SECTION
2
HEADER
9
$INSUNITS
70
4
0
ENDSEC
0
SECTION
2
TABLES
0
TABLE
2
LTYPE
0
LTYPE
72
65
70
0
2
CONTINUOUS
3
______
73
0
40
0
0
LTYPE
72
65
70
0
2
DASHED
3
_ _ _ 
73
2
40
7.5
49
5
49
-2.5
0
LTYPE
72
65
70
0
2
DOTTED
3
. . . 
73
2
40
1.5
49
0.5
49
-1
0
ENDTAB
0
TABLE
2
LAYER
0
ENDTAB
0
ENDSEC
0
SECTION
2
ENTITIES
0
LINE
8
0
6
CONTINUOUS
10
-7.75
20
-8.25
11
7.75
21
-8.25
0
ARC
8
0
6
CONTINUOUS
10
7.75
20
-7.25
40
1
50
270
51
360
0
LINE
8
0
6
CONTINUOUS
10
8.75
20
-7.25
11
8.75
21
7.25
0
ARC
8
0
6
CONTINUOUS
10
7.75
20
7.25
40
1
50
0
51
90
0
LINE
8
0
6
CONTINUOUS
10
7.75
20
8.25
11
-7.75
21
8.25
0
ARC
8
0
6
CONTINUOUS
10
-7.75
20
7.25
40
1
50
90
51
180
0
LINE
8
0
6
CONTINUOUS
10
-8.75
20
7.25
11
-8.75
21
-7.25
0
ARC
8
0
6
CONTINUOUS
10
-7.75
20
-7.25
40
1
50
180
51
270
0
LINE
8
0
6
CONTINUOUS
10
-7.75
20
8.75
11
7.75
21
8.75
0
ARC
8
0
6
CONTINUOUS
10
7.75
20
9.75
40
1
50
270
51
360
0
LINE
8
0
6
CONTINUOUS
10
8.75
20
9.75
11
8.75
21
24.25
0
ARC
8
0
6
CONTINUOUS
10
7.75
20
24.25
40
1
50
0
51
90
0
LINE
8
0
6
CONTINUOUS
10
7.75
20
25.25
11
-7.75
21
25.25
0
ARC
8
0
6
CONTINUOUS
10
-7.75
20
24.25
40
1
50
90
51
180
0
LINE
8
0
6
CONTINUOUS
10
-8.75
20
24.25
11
-8.75
21
9.75
0
ARC
8
0
6
CONTINUOUS
10
-7.75
20
9.75
40
1
50
180
51
270
0
LINE
8
0
6
CONTINUOUS
10
-7.75
20
25.75
11
7.75
21
25.75
0
ARC
8
0
6
CONTINUOUS
10
7.75
20
26.75
40
1
50
270
51
360
0
LINE
8
0
6
CONTINUOUS
10
8.75
20
26.75
11
8.75
21
41.25
0
ARC
8
0
6
CONTINUOUS
10
7.75
20
41.25
40
1
50
0
51
90
0
LINE
8
0
6
CONTINUOUS
10
7.75
20
42.25
11
-7.75
21
42.25
0
ARC
8
0
6
CONTINUOUS
10
-7.75
20
41.25
40
1
50
90
51
180
0
LINE
8
0
6
CONTINUOUS
10
-8.75
20
41.25
11
-8.75
21
26.75
0
ARC
8
0
6
CONTINUOUS
10
-7.75
20
26.75
40
1
50
180
51
270
0
LINE
8
0
6
CONTINUOUS
10
-7.75
20
42.75
11
7.75
21
42.75
0
ARC
8
0
6
CONTINUOUS
10
7.75
20
43.75
40
1
50
270
51
360
0
LINE
8
0
6
CONTINUOUS
10
8.75
20
43.75
11
8.75
21
58.25
0
ARC
8
0
6
CONTINUOUS
10
7.75
20
58.25
40
1
50
0
51
90
0
LINE
8
0
6
CONTINUOUS
10
7.75
20
59.25
11
-7.75
21
59.25
0
ARC
8
0
6
CONTINUOUS
10
-7.75
20
58.25
40
1
50
90
51
180
0
LINE
8
0
6
CONTINUOUS
10
-8.75
20
58.25
11
-8.75
21
43.75
0
ARC
8
0
6
CONTINUOUS
10
-7.75
20
43.75
40
1
50
180
51
270
0
LINE
8
0
6
CONTINUOUS
10
-7.75
20
59.75
11
7.75
21
59.75
0
ARC
8
0
6
CONTINUOUS
10
7.75
20
60.75
40
1
50
270
51
360
0
LINE
8
0
6
CONTINUOUS
10
8.75
20
60.75
11
8.75
21
75.25
0
ARC
8
0
6
CONTINUOUS
10
7.75
20
75.25
40
1
50
0
51
90
0
LINE
8
0
6
CONTINUOUS
10
7.75
20
76.25
11
-7.75
21
76.25
0
ARC
8
0
6
CONTINUOUS
10
-7.75
20
75.25
40
1
50
90
51
180
0
LINE
8
0
6
CONTINUOUS
10
-8.75
20
75.25
11
-8.75
21
60.75
0
ARC
8
0
6
CONTINUOUS
10
-7.75
20
60.75
40
1
50
180
51
270
0
LINE
8
0
6
CONTINUOUS
10
10.25
20
-8.25
11
25.75
21
-8.25
0
ARC
8
0
6
CONTINUOUS
10
25.75
20
-7.25
40
1
50
270
51
360
0
LINE
8
0
6
CONTINUOUS
10
26.75
20
-7.25
11
26.75
21
7.25
0
ARC
8
0
6
CONTINUOUS
10
25.75
20
7.25
40
1
50
0
51
90
0
LINE
8
0
6
CONTINUOUS
10
25.75
20
8.25
11
10.25
21
8.25
0
ARC
8
0
6
CONTINUOUS
10
10.25
20
7.25
40
1
50
90
51
180
0
LINE
8
0
6
CONTINUOUS
10
9.25
20
7.25
11
9.25
21
-7.25
0
ARC
8
0
6
CONTINUOUS
10
10.25
20
-7.25
40
1
50
180
51
270
0
LINE
8
0
6
CONTINUOUS
10
10.25
20
8.75
11
25.75
21
8.75
0
ARC
8
0
6
CONTINUOUS
10
25.75
20
9.75
40
1
50
270
51
360
0
LINE
8
0
6
CONTINUOUS
10
26.75
20
9.75
11
26.75
21
24.25
0
ARC
8
0
6
CONTINUOUS
10
25.75
20
24.25
40
1
50
0
51
90
0
LINE
8
0
6
CONTINUOUS
10
25.75
20
25.25
11
10.25
21
25.25
0
ARC
8
0
6
CONTINUOUS
10
10.25
20
24.25
40
1
50
90
51
180
0
LINE
8
0
6
CONTINUOUS
10
9.25
20
24.25
11
9.25
21
9.75
0
ARC
8
0
6
CONTINUOUS
10
10.25
20
9.75
40
1
50
180
51
270
0
LINE
8
0
6
CONTINUOUS
10
10.25
20
25.75
11
25.75
21
25.75
0
ARC
8
0
6
CONTINUOUS
10
25.75
20
26.75
40
1
50
270
51
360
0
LINE
8
0
6
CONTINUOUS
10
26.75
20
26.75
11
26.75
21
41.25
0
ARC
8
0
6
CONTINUOUS
10
25.75
20
41.25
40
1
50
0
51
90
0
LINE
8
0
6
CONTINUOUS
10
25.75
20
42.25
11
10.25
21
42.25
0
ARC
8
0
6
CONTINUOUS
10
10.25
20
41.25
40
1
50
90
51
180
0
LINE
8
0
6
CONTINUOUS
10
9.25
20
41.25
11
9.25
21
26.75
0
ARC
8
0
6
CONTINUOUS
10
10.25
20
26.75
40
1
50
180
51
270
0
LINE
8
0
6
CONTINUOUS
10
10.25
20
42.75
11
25.75
21
42.75
0
ARC
8
0
6
CONTINUOUS
10
25.75
20
43.75
40
1
50
270
51
360
0
LINE
8
0
6
CONTINUOUS
10
26.75
20
43.75
11
26.75
21
58.25
0
ARC
8
0
6
CONTINUOUS
10
25.75
20
58.25
40
1
50
0
51
90
0
LINE
8
0
6
CONTINUOUS
10
25.75
20
59.25
11
10.25
21
59.25
0
ARC
8
0
6
CONTINUOUS
10
10.25
20
58.25
40
1
50
90
51
180
0
LINE
8
0
6
CONTINUOUS
10
9.25
20
58.25
11
9.25
21
43.75
0
ARC
8
0
6
CONTINUOUS
10
10.25
20
43.75
40
1
50
180
51
270
0
LINE
8
0
6
CONTINUOUS
10
10.25
20
59.75
11
25.75
21
59.75
0
ARC
8
0
6
CONTINUOUS
10
25.75
20
60.75
40
1
50
270
51
360
0
LINE
8
0
6
CONTINUOUS
10
26.75
20
60.75
11
26.75
21
75.25
0
ARC
8
0
6
CONTINUOUS
10
25.75
20
75.25
40
1
50
0
51
90
0
LINE
8
0
6
CONTINUOUS
10
25.75
20
76.25
11
10.25
21
76.25
0
ARC
8
0
6
CONTINUOUS
10
10.25
20
75.25
40
1
50
90
51
180
0
LINE
8
0
6
CONTINUOUS
10
9.25
20
75.25
11
9.25
21
60.75
0
ARC
8
0
6
CONTINUOUS
10
10.25
20
60.75
40
1
50
180
51
270
0
LINE
8
0
6
CONTINUOUS
10
28.25
20
-0.25
11
43.75
21
-0.25
0
ARC
8
0
6
CONTINUOUS
10
43.75
20
0.75
40
1
50
270
51
360
0
LINE
8
0
6
CONTINUOUS
10
44.75
20
0.75
11
44.75
21
15.25
0
ARC
8
0
6
CONTINUOUS
10
43.75
20
15.25
40
1
50
0
51
90
0
LINE
8
0
6
CONTINUOUS
10
43.75
20
16.25
11
28.25
21
16.25
0
ARC
8
0
6
CONTINUOUS
10
28.25
20
15.25
40
1
50
90
51
180
0
LINE
8
0
6
CONTINUOUS
10
27.25
20
15.25
11
27.25
21
0.75
0
ARC
8
0
6
CONTINUOUS
10
28.25
20
0.75
40
1
50
180
51
270
0
LINE
8
0
6
CONTINUOUS
10
28.25
20
16.75
11
43.75
21
16.75
0
ARC
8
0
6
CONTINUOUS
10
43.75
20
17.75
40
1
50
270
51
360
0
LINE
8
0
6
CONTINUOUS
10
44.75
20
17.75
11
44.75
21
32.25
0
ARC
8
0
6
CONTINUOUS
10
43.75
20
32.25
40
1
50
0
51
90
0
LINE
8
0
6
CONTINUOUS
10
43.75
20
33.25
11
28.25
21
33.25
0
ARC
8
0
6
CONTINUOUS
10
28.25
20
32.25
40
1
50
90
51
180
0
LINE
8
0
6
CONTINUOUS
10
27.25
20
32.25
11
27.25
21
17.75
0
ARC
8
0
6
CONTINUOUS
10
28.25
20
17.75
40
1
50
180
51
270
0
LINE
8
0
6
CONTINUOUS
10
28.25
20
33.75
11
43.75
21
33.75
0
ARC
8
0
6
CONTINUOUS
10
43.75
20
34.75
40
1
50
270
51
360
0
LINE
8
0
6
CONTINUOUS
10
44.75
20
34.75
11
44.75
21
49.25
0
ARC
8
0
6
CONTINUOUS
10
43.75
20
49.25
40
1
50
0
51
90
0
LINE
8
0
6
CONTINUOUS
10
43.75
20
50.25
11
28.25
21
50.25
0
ARC
8
0
6
CONTINUOUS
10
28.25
20
49.25
40
1
50
90
51
180
0
LINE
8
0
6
CONTINUOUS
10
27.25
20
49.25
11
27.25
21
34.75
0
ARC
8
0
6
CONTINUOUS
10
28.25
20
34.75
40
1
50
180
51
270
0
LINE
8
0
6
CONTINUOUS
10
28.25
20
50.75
11
43.75
21
50.75
0
ARC
8
0
6
CONTINUOUS
10
43.75
20
51.75
40
1
50
270
51
360
0
LINE
8
0
6
CONTINUOUS
10
44.75
20
51.75
11
44.75
21
66.25
0
ARC
8
0
6
CONTINUOUS
10
43.75
20
66.25
40
1
50
0
51
90
0
LINE
8
0
6
CONTINUOUS
10
43.75
20
67.25
11
28.25
21
67.25
0
ARC
8
0
6
CONTINUOUS
10
28.25
20
66.25
40
1
50
90
51
180
0
LINE
8
0
6
CONTINUOUS
10
27.25
20
66.25
11
27.25
21
51.75
0
ARC
8
0
6
CONTINUOUS
10
28.25
20
51.75
40
1
50
180
51
270
0
LINE
8
0
6
CONTINUOUS
10
28.25
20
67.75
11
43.75
21
67.75
0
ARC
8
0
6
CONTINUOUS
10
43.75
20
68.75
40
1
50
270
51
360
0
LINE
8
0
6
CONTINUOUS
10
44.75
20
68.75
11
44.75
21
83.25
0
ARC
8
0
6
CONTINUOUS
10
43.75
20
83.25
40
1
50
0
51
90
0
LINE
8
0
6
CONTINUOUS
10
43.75
20
84.25
11
28.25
21
84.25
0
ARC
8
0
6
CONTINUOUS
10
28.25
20
83.25
40
1
50
90
51
180
0
LINE
8
0
6
CONTINUOUS
10
27.25
20
83.25
11
27.25
21
68.75
0
ARC
8
0
6
CONTINUOUS
10
28.25
20
68.75
40
1
50
180
51
270
0
LINE
8
0
6
CONTINUOUS
10
46.25
20
3.75
11
61.75
21
3.75
0
ARC
8
0
6
CONTINUOUS
10
61.75
20
4.75
40
1
50
270
51
360
0
LINE
8
0
6
CONTINUOUS
10
62.75
20
4.75
11
62.75
21
19.25
0
ARC
8
0
6
CONTINUOUS
10
61.75
20
19.25
40
1
50
0
51
90
0
LINE
8
0
6
CONTINUOUS
10
61.75
20
20.25
11
46.25
21
20.25
0
ARC
8
0
6
CONTINUOUS
10
46.25
20
19.25
40
1
50
90
51
180
0
LINE
8
0
6
CONTINUOUS
10
45.25
20
19.25
11
45.25
21
4.75
0
ARC
8
0
6
CONTINUOUS
10
46.25
20
4.75
40
1
50
180
51
270
0
LINE
8
0
6
CONTINUOUS
10
46.25
20
20.75
11
61.75
21
20.75
0
ARC
8
0
6
CONTINUOUS
10
61.75
20
21.75
40
1
50
270
51
360
0
LINE
8
0
6
CONTINUOUS
10
62.75
20
21.75
11
62.75
21
36.25
0
ARC
8
0
6
CONTINUOUS
10
61.75
20
36.25
40
1
50
0
51
90
0
LINE
8
0
6
CONTINUOUS
10
61.75
20
37.25
11
46.25
21
37.25
0
ARC
8
0
6
CONTINUOUS
10
46.25
20
36.25
40
1
50
90
51
180
0
LINE
8
0
6
CONTINUOUS
10
45.25
20
36.25
11
45.25
21
21.75
0
ARC
8
0
6
CONTINUOUS
10
46.25
20
21.75
40
1
50
180
51
270
0
LINE
8
0
6
CONTINUOUS
10
46.25
20
37.75
11
61.75
21
37.75
0
ARC
8
0
6
CONTINUOUS
10
61.75
20
38.75
40
1
50
270
51
360
0
LINE
8
0
6
CONTINUOUS
10
62.75
20
38.75
11
62.75
21
53.25
0
ARC
8
0
6
CONTINUOUS
10
61.75
20
53.25
40
1
50
0
51
90
0
LINE
8
0
6
CONTINUOUS
10
61.75
20
54.25
11
46.25
21
54.25
0
ARC
8
0
6
CONTINUOUS
10
46.25
20
53.25
40
1
50
90
51
180
0
LINE
8
0
6
CONTINUOUS
10
45.25
20
53.25
11
45.25
21
38.75
0
ARC
8
0
6
CONTINUOUS
10
46.25
20
38.75
40
1
50
180
51
270
0
LINE
8
0
6
CONTINUOUS
10
46.25
20
54.75
11
61.75
21
54.75
0
ARC
8
0
6
CONTINUOUS
10
61.75
20
55.75
40
1
50
270
51
360
0
LINE
8
0
6
CONTINUOUS
10
62.75
20
55.75
11
62.75
21
70.25
0
ARC
8
0
6
CONTINUOUS
10
61.75
20
70.25
40
1
50
0
51
90
0
LINE
8
0
6
CONTINUOUS
10
61.75
20
71.25
11
46.25
21
71.25
0
ARC
8
0
6
CONTINUOUS
10
46.25
20
70.25
40
1
50
90
51
180
0
LINE
8
0
6
CONTINUOUS
10
45.25
20
70.25
11
45.25
21
55.75
0
ARC
8
0
6
CONTINUOUS
10
46.25
20
55.75
40
1
50
180
51
270
0
LINE
8
0
6
CONTINUOUS
10
46.25
20
71.75
11
61.75
21
71.75
0
ARC
8
0
6
CONTINUOUS
10
61.75
20
72.75
40
1
50
270
51
360
0
LINE
8
0
6
CONTINUOUS
10
62.75
20
72.75
11
62.75
21
87.25
0
ARC
8
0
6
CONTINUOUS
10
61.75
20
87.25
40
1
50
0
51
90
0
LINE
8
0
6
CONTINUOUS
10
61.75
20
88.25
11
46.25
21
88.25
0
ARC
8
0
6
CONTINUOUS
10
46.25
20
87.25
40
1
50
90
51
180
0
LINE
8
0
6
CONTINUOUS
10
45.25
20
87.25
11
45.25
21
72.75
0
ARC
8
0
6
CONTINUOUS
10
46.25
20
72.75
40
1
50
180
51
270
0
LINE
8
0
6
CONTINUOUS
10
64.25
20
-2.25
11
79.75
21
-2.25
0
ARC
8
0
6
CONTINUOUS
10
79.75
20
-1.25
40
1
50
270
51
360
0
LINE
8
0
6
CONTINUOUS
10
80.75
20
-1.25
11
80.75
21
13.25
0
ARC
8
0
6
CONTINUOUS
10
79.75
20
13.25
40
1
50
0
51
90
0
LINE
8
0
6
CONTINUOUS
10
79.75
20
14.25
11
64.25
21
14.25
0
ARC
8
0
6
CONTINUOUS
10
64.25
20
13.25
40
1
50
90
51
180
0
LINE
8
0
6
CONTINUOUS
10
63.25
20
13.25
11
63.25
21
-1.25
0
ARC
8
0
6
CONTINUOUS
10
64.25
20
-1.25
40
1
50
180
51
270
0
LINE
8
0
6
CONTINUOUS
10
64.25
20
14.75
11
79.75
21
14.75
0
ARC
8
0
6
CONTINUOUS
10
79.75
20
15.75
40
1
50
270
51
360
0
LINE
8
0
6
CONTINUOUS
10
80.75
20
15.75
11
80.75
21
30.25
0
ARC
8
0
6
CONTINUOUS
10
79.75
20
30.25
40
1
50
0
51
90
0
LINE
8
0
6
CONTINUOUS
10
79.75
20
31.25
11
64.25
21
31.25
0
ARC
8
0
6
CONTINUOUS
10
64.25
20
30.25
40
1
50
90
51
180
0
LINE
8
0
6
CONTINUOUS
10
63.25
20
30.25
11
63.25
21
15.75
0
ARC
8
0
6
CONTINUOUS
10
64.25
20
15.75
40
1
50
180
51
270
0
LINE
8
0
6
CONTINUOUS
10
64.25
20
31.75
11
79.75
21
31.75
0
ARC
8
0
6
CONTINUOUS
10
79.75
20
32.75
40
1
50
270
51
360
0
LINE
8
0
6
CONTINUOUS
10
80.75
20
32.75
11
80.75
21
47.25
0
ARC
8
0
6
CONTINUOUS
10
79.75
20
47.25
40
1
50
0
51
90
0
LINE
8
0
6
CONTINUOUS
10
79.75
20
48.25
11
64.25
21
48.25
0
ARC
8
0
6
CONTINUOUS
10
64.25
20
47.25
40
1
50
90
51
180
0
LINE
8
0
6
CONTINUOUS
10
63.25
20
47.25
11
63.25
21
32.75
0
ARC
8
0
6
CONTINUOUS
10
64.25
20
32.75
40
1
50
180
51
270
0
LINE
8
0
6
CONTINUOUS
10
64.25
20
48.75
11
79.75
21
48.75
0
ARC
8
0
6
CONTINUOUS
10
79.75
20
49.75
40
1
50
270
51
360
0
LINE
8
0
6
CONTINUOUS
10
80.75
20
49.75
11
80.75
21
64.25
0
ARC
8
0
6
CONTINUOUS
10
79.75
20
64.25
40
1
50
0
51
90
0
LINE
8
0
6
CONTINUOUS
10
79.75
20
65.25
11
64.25
21
65.25
0
ARC
8
0
6
CONTINUOUS
10
64.25
20
64.25
40
1
50
90
51
180
0
LINE
8
0
6
CONTINUOUS
10
63.25
20
64.25
11
63.25
21
49.75
0
ARC
8
0
6
CONTINUOUS
10
64.25
20
49.75
40
1
50
180
51
270
0
LINE
8
0
6
CONTINUOUS
10
64.25
20
65.75
11
79.75
21
65.75
0
ARC
8
0
6
CONTINUOUS
10
79.75
20
66.75
40
1
50
270
51
360
0
LINE
8
0
6
CONTINUOUS
10
80.75
20
66.75
11
80.75
21
81.25
0
ARC
8
0
6
CONTINUOUS
10
79.75
20
81.25
40
1
50
0
51
90
0
LINE
8
0
6
CONTINUOUS
10
79.75
20
82.25
11
64.25
21
82.25
0
ARC
8
0
6
CONTINUOUS
10
64.25
20
81.25
40
1
50
90
51
180
0
LINE
8
0
6
CONTINUOUS
10
63.25
20
81.25
11
63.25
21
66.75
0
ARC
8
0
6
CONTINUOUS
10
64.25
20
66.75
40
1
50
180
51
270
0
LINE
8
0
6
CONTINUOUS
10
82.9351424
20
-6.7788906
11
98.1996626
21
-9.4704373
0
ARC
8
0
6
CONTINUOUS
10
98.3733108
20
-8.4856296
40
1
50
260
51
350
0
LINE
8
0
6
CONTINUOUS
10
99.3581186
20
-8.6592778
11
101.8760171
21
5.6204347
0
ARC
8
0
6
CONTINUOUS
10
100.8912094
20
5.7940828
40
1
50
350
51
80
0
LINE
8
0
6
CONTINUOUS
10
101.0648576
20
6.7788906
11
85.8003374
21
9.4704373
0
ARC
8
0
6
CONTINUOUS
10
85.6266892
20
8.4856296
40
1
50
80
51
170
0
LINE
8
0
6
CONTINUOUS
10
84.6418814
20
8.6592778
11
82.1239829
21
-5.6204347
0
ARC
8
0
6
CONTINUOUS
10
83.1087906
20
-5.7940828
40
1
50
170
51
260
0
LINE
8
0
6
CONTINUOUS
10
82.25
20
12.75
11
97.75
21
12.75
0
ARC
8
0
6
CONTINUOUS
10
97.75
20
13.75
40
1
50
270
51
360
0
LINE
8
0
6
CONTINUOUS
10
98.75
20
13.75
11
98.75
21
28.25
0
ARC
8
0
6
CONTINUOUS
10
97.75
20
28.25
40
1
50
0
51
90
0
LINE
8
0
6
CONTINUOUS
10
97.75
20
29.25
11
82.25
21
29.25
0
ARC
8
0
6
CONTINUOUS
10
82.25
20
28.25
40
1
50
90
51
180
0
LINE
8
0
6
CONTINUOUS
10
81.25
20
28.25
11
81.25
21
13.75
0
ARC
8
0
6
CONTINUOUS
10
82.25
20
13.75
40
1
50
180
51
270
0
LINE
8
0
6
CONTINUOUS
10
82.25
20
29.75
11
97.75
21
29.75
0
ARC
8
0
6
CONTINUOUS
10
97.75
20
30.75
40
1
50
270
51
360
0
LINE
8
0
6
CONTINUOUS
10
98.75
20
30.75
11
98.75
21
45.25
0
ARC
8
0
6
CONTINUOUS
10
97.75
20
45.25
40
1
50
0
51
90
0
LINE
8
0
6
CONTINUOUS
10
97.75
20
46.25
11
82.25
21
46.25
0
ARC
8
0
6
CONTINUOUS
10
82.25
20
45.25
40
1
50
90
51
180
0
LINE
8
0
6
CONTINUOUS
10
81.25
20
45.25
11
81.25
21
30.75
0
ARC
8
0
6
CONTINUOUS
10
82.25
20
30.75
40
1
50
180
51
270
0
LINE
8
0
6
CONTINUOUS
10
82.25
20
46.75
11
97.75
21
46.75
0
ARC
8
0
6
CONTINUOUS
10
97.75
20
47.75
40
1
50
270
51
360
0
LINE
8
0
6
CONTINUOUS
10
98.75
20
47.75
11
98.75
21
62.25
0
ARC
8
0
6
CONTINUOUS
10
97.75
20
62.25
40
1
50
0
51
90
0
LINE
8
0
6
CONTINUOUS
10
97.75
20
63.25
11
82.25
21
63.25
0
ARC
8
0
6
CONTINUOUS
10
82.25
20
62.25
40
1
50
90
51
180
0
LINE
8
0
6
CONTINUOUS
10
81.25
20
62.25
11
81.25
21
47.75
0
ARC
8
0
6
CONTINUOUS
10
82.25
20
47.75
40
1
50
180
51
270
0
LINE
8
0
6
CONTINUOUS
10
82.25
20
63.75
11
97.75
21
63.75
0
ARC
8
0
6
CONTINUOUS
10
97.75
20
64.75
40
1
50
270
51
360
0
LINE
8
0
6
CONTINUOUS
10
98.75
20
64.75
11
98.75
21
79.25
0
ARC
8
0
6
CONTINUOUS
10
97.75
20
79.25
40
1
50
0
51
90
0
LINE
8
0
6
CONTINUOUS
10
97.75
20
80.25
11
82.25
21
80.25
0
ARC
8
0
6
CONTINUOUS
10
82.25
20
79.25
40
1
50
90
51
180
0
LINE
8
0
6
CONTINUOUS
10
81.25
20
79.25
11
81.25
21
64.75
0
ARC
8
0
6
CONTINUOUS
10
82.25
20
64.75
40
1
50
180
51
270
0
LINE
8
0
6
CONTINUOUS
10
99.0577891
20
-13.6895684
11
107.4372826
21
9.3329008
0
ARC
8
0
6
CONTINUOUS
10
101.5365724
20
-9.8029718
40
1
50
160
51
250
0
LINE
8
0
6
CONTINUOUS
10
101.1945522
20
-10.7426644
11
114.8200952
21
-15.7019565
0
ARC
8
0
6
CONTINUOUS
10
115.1621154
20
-14.7622639
40
1
50
250
51
340
0
LINE
8
0
6
CONTINUOUS
10
114.5627174
20
-19.3329008
11
122.9422109
21
3.6895684
0
ARC
8
0
6
CONTINUOUS
10
120.4634276
20
-0.1970282
40
1
50
340
51
70
0
LINE
8
0
6
CONTINUOUS
10
120.8054478
20
0.7426644
11
107.1799048
21
5.7019565
0
ARC
8
0
6
CONTINUOUS
10
106.8378846
20
4.7622639
40
1
50
70
51
160
0
LINE
8
0
6
CONTINUOUS
10
100.25
20
12.75
11
115.75
21
12.75
0
ARC
8
0
6
CONTINUOUS
10
115.75
20
13.75
40
1
50
270
51
360
0
LINE
8
0
6
CONTINUOUS
10
116.75
20
13.75
11
116.75
21
28.25
0
ARC
8
0
6
CONTINUOUS
10
115.75
20
28.25
40
1
50
0
51
90
0
LINE
8
0
6
CONTINUOUS
10
115.75
20
29.25
11
100.25
21
29.25
0
ARC
8
0
6
CONTINUOUS
10
100.25
20
28.25
40
1
50
90
51
180
0
LINE
8
0
6
CONTINUOUS
10
99.25
20
28.25
11
99.25
21
13.75
0
ARC
8
0
6
CONTINUOUS
10
100.25
20
13.75
40
1
50
180
51
270
0
LINE
8
0
6
CONTINUOUS
10
100.25
20
29.75
11
115.75
21
29.75
0
ARC
8
0
6
CONTINUOUS
10
115.75
20
30.75
40
1
50
270
51
360
0
LINE
8
0
6
CONTINUOUS
10
116.75
20
30.75
11
116.75
21
45.25
0
ARC
8
0
6
CONTINUOUS
10
115.75
20
45.25
40
1
50
0
51
90
0
LINE
8
0
6
CONTINUOUS
10
115.75
20
46.25
11
100.25
21
46.25
0
ARC
8
0
6
CONTINUOUS
10
100.25
20
45.25
40
1
50
90
51
180
0
LINE
8
0
6
CONTINUOUS
10
99.25
20
45.25
11
99.25
21
30.75
0
ARC
8
0
6
CONTINUOUS
10
100.25
20
30.75
40
1
50
180
51
270
0
LINE
8
0
6
CONTINUOUS
10
100.25
20
46.75
11
115.75
21
46.75
0
ARC
8
0
6
CONTINUOUS
10
115.75
20
47.75
40
1
50
270
51
360
0
LINE
8
0
6
CONTINUOUS
10
116.75
20
47.75
11
116.75
21
62.25
0
ARC
8
0
6
CONTINUOUS
10
115.75
20
62.25
40
1
50
0
51
90
0
LINE
8
0
6
CONTINUOUS
10
115.75
20
63.25
11
100.25
21
63.25
0
ARC
8
0
6
CONTINUOUS
10
100.25
20
62.25
40
1
50
90
51
180
0
LINE
8
0
6
CONTINUOUS
10
99.25
20
62.25
11
99.25
21
47.75
0
ARC
8
0
6
CONTINUOUS
10
100.25
20
47.75
40
1
50
180
51
270
0
LINE
8
0
6
CONTINUOUS
10
100.25
20
63.75
11
115.75
21
63.75
0
ARC
8
0
6
CONTINUOUS
10
115.75
20
64.75
40
1
50
270
51
360
0
LINE
8
0
6
CONTINUOUS
10
116.75
20
64.75
11
116.75
21
79.25
0
ARC
8
0
6
CONTINUOUS
10
115.75
20
79.25
40
1
50
0
51
90
0
LINE
8
0
6
CONTINUOUS
10
115.75
20
80.25
11
100.25
21
80.25
0
ARC
8
0
6
CONTINUOUS
10
100.25
20
79.25
40
1
50
90
51
180
0
LINE
8
0
6
CONTINUOUS
10
99.25
20
79.25
11
99.25
21
64.75
0
ARC
8
0
6
CONTINUOUS
10
100.25
20
64.75
40
1
50
180
51
270
0
LINE
8
0
6
CONTINUOUS
10
115.9722563
20
-19.845931
11
124.3517498
21
3.1765382
0
ARC
8
0
6
CONTINUOUS
10
118.4510396
20
-15.9593344
40
1
50
160
51
250
0
LINE
8
0
6
CONTINUOUS
10
118.1090194
20
-16.899027
11
131.7345624
21
-21.8583191
0
ARC
8
0
6
CONTINUOUS
10
132.0765826
20
-20.9186265
40
1
50
250
51
340
0
LINE
8
0
6
CONTINUOUS
10
131.4771846
20
-25.4892634
11
139.8566781
21
-2.4667942
0
ARC
8
0
6
CONTINUOUS
10
137.3778948
20
-6.3533908
40
1
50
340
51
70
0
LINE
8
0
6
CONTINUOUS
10
137.719915
20
-5.4136982
11
124.094372
21
-0.4544061
0
ARC
8
0
6
CONTINUOUS
10
123.7523518
20
-1.3940987
40
1
50
70
51
160
0
LINE
8
0
6
CONTINUOUS
10
125.6766465
20
5.3547597
11
140.2418821
21
0.0534475
0
ARC
8
0
6
CONTINUOUS
10
140.5839023
20
0.9931401
40
1
50
250
51
340
0
LINE
8
0
6
CONTINUOUS
10
141.5235949
20
0.6511199
11
146.482887
21
14.2766629
0
ARC
8
0
6
CONTINUOUS
10
145.5431944
20
14.6186831
40
1
50
340
51
70
0
LINE
8
0
6
CONTINUOUS
10
145.8852145
20
15.5583757
11
131.3199789
21
20.8596879
0
ARC
8
0
6
CONTINUOUS
10
130.9779587
20
19.9199953
40
1
50
70
51
160
0
LINE
8
0
6
CONTINUOUS
10
130.0382661
20
20.2620155
11
125.078974
21
6.6364725
0
ARC
8
0
6
CONTINUOUS
10
126.0186666
20
6.2944523
40
1
50
160
51
250
0
LINE
8
0
6
CONTINUOUS
10
322.25
20
-8.25
11
337.75
21
-8.25
0
ARC
8
0
6
CONTINUOUS
10
337.75
20
-7.25
40
1
50
270
51
360
0
LINE
8
0
6
CONTINUOUS
10
338.75
20
-7.25
11
338.75
21
7.25
0
ARC
8
0
6
CONTINUOUS
10
337.75
20
7.25
40
1
50
0
51
90
0
LINE
8
0
6
CONTINUOUS
10
337.75
20
8.25
11
322.25
21
8.25
0
ARC
8
0
6
CONTINUOUS
10
322.25
20
7.25
40
1
50
90
51
180
0
LINE
8
0
6
CONTINUOUS
10
321.25
20
7.25
11
321.25
21
-7.25
0
ARC
8
0
6
CONTINUOUS
10
322.25
20
-7.25
40
1
50
180
51
270
0
LINE
8
0
6
CONTINUOUS
10
322.25
20
8.75
11
337.75
21
8.75
0
ARC
8
0
6
CONTINUOUS
10
337.75
20
9.75
40
1
50
270
51
360
0
LINE
8
0
6
CONTINUOUS
10
338.75
20
9.75
11
338.75
21
24.25
0
ARC
8
0
6
CONTINUOUS
10
337.75
20
24.25
40
1
50
0
51
90
0
LINE
8
0
6
CONTINUOUS
10
337.75
20
25.25
11
322.25
21
25.25
0
ARC
8
0
6
CONTINUOUS
10
322.25
20
24.25
40
1
50
90
51
180
0
LINE
8
0
6
CONTINUOUS
10
321.25
20
24.25
11
321.25
21
9.75
0
ARC
8
0
6
CONTINUOUS
10
322.25
20
9.75
40
1
50
180
51
270
0
LINE
8
0
6
CONTINUOUS
10
322.25
20
25.75
11
337.75
21
25.75
0
ARC
8
0
6
CONTINUOUS
10
337.75
20
26.75
40
1
50
270
51
360
0
LINE
8
0
6
CONTINUOUS
10
338.75
20
26.75
11
338.75
21
41.25
0
ARC
8
0
6
CONTINUOUS
10
337.75
20
41.25
40
1
50
0
51
90
0
LINE
8
0
6
CONTINUOUS
10
337.75
20
42.25
11
322.25
21
42.25
0
ARC
8
0
6
CONTINUOUS
10
322.25
20
41.25
40
1
50
90
51
180
0
LINE
8
0
6
CONTINUOUS
10
321.25
20
41.25
11
321.25
21
26.75
0
ARC
8
0
6
CONTINUOUS
10
322.25
20
26.75
40
1
50
180
51
270
0
LINE
8
0
6
CONTINUOUS
10
322.25
20
42.75
11
337.75
21
42.75
0
ARC
8
0
6
CONTINUOUS
10
337.75
20
43.75
40
1
50
270
51
360
0
LINE
8
0
6
CONTINUOUS
10
338.75
20
43.75
11
338.75
21
58.25
0
ARC
8
0
6
CONTINUOUS
10
337.75
20
58.25
40
1
50
0
51
90
0
LINE
8
0
6
CONTINUOUS
10
337.75
20
59.25
11
322.25
21
59.25
0
ARC
8
0
6
CONTINUOUS
10
322.25
20
58.25
40
1
50
90
51
180
0
LINE
8
0
6
CONTINUOUS
10
321.25
20
58.25
11
321.25
21
43.75
0
ARC
8
0
6
CONTINUOUS
10
322.25
20
43.75
40
1
50
180
51
270
0
LINE
8
0
6
CONTINUOUS
10
322.25
20
59.75
11
337.75
21
59.75
0
ARC
8
0
6
CONTINUOUS
10
337.75
20
60.75
40
1
50
270
51
360
0
LINE
8
0
6
CONTINUOUS
10
338.75
20
60.75
11
338.75
21
75.25
0
ARC
8
0
6
CONTINUOUS
10
337.75
20
75.25
40
1
50
0
51
90
0
LINE
8
0
6
CONTINUOUS
10
337.75
20
76.25
11
322.25
21
76.25
0
ARC
8
0
6
CONTINUOUS
10
322.25
20
75.25
40
1
50
90
51
180
0
LINE
8
0
6
CONTINUOUS
10
321.25
20
75.25
11
321.25
21
60.75
0
ARC
8
0
6
CONTINUOUS
10
322.25
20
60.75
40
1
50
180
51
270
0
LINE
8
0
6
CONTINUOUS
10
304.25
20
-8.25
11
319.75
21
-8.25
0
ARC
8
0
6
CONTINUOUS
10
319.75
20
-7.25
40
1
50
270
51
360
0
LINE
8
0
6
CONTINUOUS
10
320.75
20
-7.25
11
320.75
21
7.25
0
ARC
8
0
6
CONTINUOUS
10
319.75
20
7.25
40
1
50
0
51
90
0
LINE
8
0
6
CONTINUOUS
10
319.75
20
8.25
11
304.25
21
8.25
0
ARC
8
0
6
CONTINUOUS
10
304.25
20
7.25
40
1
50
90
51
180
0
LINE
8
0
6
CONTINUOUS
10
303.25
20
7.25
11
303.25
21
-7.25
0
ARC
8
0
6
CONTINUOUS
10
304.25
20
-7.25
40
1
50
180
51
270
0
LINE
8
0
6
CONTINUOUS
10
304.25
20
8.75
11
319.75
21
8.75
0
ARC
8
0
6
CONTINUOUS
10
319.75
20
9.75
40
1
50
270
51
360
0
LINE
8
0
6
CONTINUOUS
10
320.75
20
9.75
11
320.75
21
24.25
0
ARC
8
0
6
CONTINUOUS
10
319.75
20
24.25
40
1
50
0
51
90
0
LINE
8
0
6
CONTINUOUS
10
319.75
20
25.25
11
304.25
21
25.25
0
ARC
8
0
6
CONTINUOUS
10
304.25
20
24.25
40
1
50
90
51
180
0
LINE
8
0
6
CONTINUOUS
10
303.25
20
24.25
11
303.25
21
9.75
0
ARC
8
0
6
CONTINUOUS
10
304.25
20
9.75
40
1
50
180
51
270
0
LINE
8
0
6
CONTINUOUS
10
304.25
20
25.75
11
319.75
21
25.75
0
ARC
8
0
6
CONTINUOUS
10
319.75
20
26.75
40
1
50
270
51
360
0
LINE
8
0
6
CONTINUOUS
10
320.75
20
26.75
11
320.75
21
41.25
0
ARC
8
0
6
CONTINUOUS
10
319.75
20
41.25
40
1
50
0
51
90
0
LINE
8
0
6
CONTINUOUS
10
319.75
20
42.25
11
304.25
21
42.25
0
ARC
8
0
6
CONTINUOUS
10
304.25
20
41.25
40
1
50
90
51
180
0
LINE
8
0
6
CONTINUOUS
10
303.25
20
41.25
11
303.25
21
26.75
0
ARC
8
0
6
CONTINUOUS
10
304.25
20
26.75
40
1
50
180
51
270
0
LINE
8
0
6
CONTINUOUS
10
304.25
20
42.75
11
319.75
21
42.75
0
ARC
8
0
6
CONTINUOUS
10
319.75
20
43.75
40
1
50
270
51
360
0
LINE
8
0
6
CONTINUOUS
10
320.75
20
43.75
11
320.75
21
58.25
0
ARC
8
0
6
CONTINUOUS
10
319.75
20
58.25
40
1
50
0
51
90
0
LINE
8
0
6
CONTINUOUS
10
319.75
20
59.25
11
304.25
21
59.25
0
ARC
8
0
6
CONTINUOUS
10
304.25
20
58.25
40
1
50
90
51
180
0
LINE
8
0
6
CONTINUOUS
10
303.25
20
58.25
11
303.25
21
43.75
0
ARC
8
0
6
CONTINUOUS
10
304.25
20
43.75
40
1
50
180
51
270
0
LINE
8
0
6
CONTINUOUS
10
304.25
20
59.75
11
319.75
21
59.75
0
ARC
8
0
6
CONTINUOUS
10
319.75
20
60.75
40
1
50
270
51
360
0
LINE
8
0
6
CONTINUOUS
10
320.75
20
60.75
11
320.75
21
75.25
0
ARC
8
0
6
CONTINUOUS
10
319.75
20
75.25
40
1
50
0
51
90
0
LINE
8
0
6
CONTINUOUS
10
319.75
20
76.25
11
304.25
21
76.25
0
ARC
8
0
6
CONTINUOUS
10
304.25
20
75.25
40
1
50
90
51
180
0
LINE
8
0
6
CONTINUOUS
10
303.25
20
75.25
11
303.25
21
60.75
0
ARC
8
0
6
CONTINUOUS
10
304.25
20
60.75
40
1
50
180
51
270
0
LINE
8
0
6
CONTINUOUS
10
286.25
20
-0.25
11
301.75
21
-0.25
0
ARC
8
0
6
CONTINUOUS
10
301.75
20
0.75
40
1
50
270
51
360
0
LINE
8
0
6
CONTINUOUS
10
302.75
20
0.75
11
302.75
21
15.25
0
ARC
8
0
6
CONTINUOUS
10
301.75
20
15.25
40
1
50
0
51
90
0
LINE
8
0
6
CONTINUOUS
10
301.75
20
16.25
11
286.25
21
16.25
0
ARC
8
0
6
CONTINUOUS
10
286.25
20
15.25
40
1
50
90
51
180
0
LINE
8
0
6
CONTINUOUS
10
285.25
20
15.25
11
285.25
21
0.75
0
ARC
8
0
6
CONTINUOUS
10
286.25
20
0.75
40
1
50
180
51
270
0
LINE
8
0
6
CONTINUOUS
10
286.25
20
16.75
11
301.75
21
16.75
0
ARC
8
0
6
CONTINUOUS
10
301.75
20
17.75
40
1
50
270
51
360
0
LINE
8
0
6
CONTINUOUS
10
302.75
20
17.75
11
302.75
21
32.25
0
ARC
8
0
6
CONTINUOUS
10
301.75
20
32.25
40
1
50
0
51
90
0
LINE
8
0
6
CONTINUOUS
10
301.75
20
33.25
11
286.25
21
33.25
0
ARC
8
0
6
CONTINUOUS
10
286.25
20
32.25
40
1
50
90
51
180
0
LINE
8
0
6
CONTINUOUS
10
285.25
20
32.25
11
285.25
21
17.75
0
ARC
8
0
6
CONTINUOUS
10
286.25
20
17.75
40
1
50
180
51
270
0
LINE
8
0
6
CONTINUOUS
10
286.25
20
33.75
11
301.75
21
33.75
0
ARC
8
0
6
CONTINUOUS
10
301.75
20
34.75
40
1
50
270
51
360
0
LINE
8
0
6
CONTINUOUS
10
302.75
20
34.75
11
302.75
21
49.25
0
ARC
8
0
6
CONTINUOUS
10
301.75
20
49.25
40
1
50
0
51
90
0
LINE
8
0
6
CONTINUOUS
10
301.75
20
50.25
11
286.25
21
50.25
0
ARC
8
0
6
CONTINUOUS
10
286.25
20
49.25
40
1
50
90
51
180
0
LINE
8
0
6
CONTINUOUS
10
285.25
20
49.25
11
285.25
21
34.75
0
ARC
8
0
6
CONTINUOUS
10
286.25
20
34.75
40
1
50
180
51
270
0
LINE
8
0
6
CONTINUOUS
10
286.25
20
50.75
11
301.75
21
50.75
0
ARC
8
0
6
CONTINUOUS
10
301.75
20
51.75
40
1
50
270
51
360
0
LINE
8
0
6
CONTINUOUS
10
302.75
20
51.75
11
302.75
21
66.25
0
ARC
8
0
6
CONTINUOUS
10
301.75
20
66.25
40
1
50
0
51
90
0
LINE
8
0
6
CONTINUOUS
10
301.75
20
67.25
11
286.25
21
67.25
0
ARC
8
0
6
CONTINUOUS
10
286.25
20
66.25
40
1
50
90
51
180
0
LINE
8
0
6
CONTINUOUS
10
285.25
20
66.25
11
285.25
21
51.75
0
ARC
8
0
6
CONTINUOUS
10
286.25
20
51.75
40
1
50
180
51
270
0
LINE
8
0
6
CONTINUOUS
10
286.25
20
67.75
11
301.75
21
67.75
0
ARC
8
0
6
CONTINUOUS
10
301.75
20
68.75
40
1
50
270
51
360
0
LINE
8
0
6
CONTINUOUS
10
302.75
20
68.75
11
302.75
21
83.25
0
ARC
8
0
6
CONTINUOUS
10
301.75
20
83.25
40
1
50
0
51
90
0
LINE
8
0
6
CONTINUOUS
10
301.75
20
84.25
11
286.25
21
84.25
0
ARC
8
0
6
CONTINUOUS
10
286.25
20
83.25
40
1
50
90
51
180
0
LINE
8
0
6
CONTINUOUS
10
285.25
20
83.25
11
285.25
21
68.75
0
ARC
8
0
6
CONTINUOUS
10
286.25
20
68.75
40
1
50
180
51
270
0
LINE
8
0
6
CONTINUOUS
10
268.25
20
3.75
11
283.75
21
3.75
0
ARC
8
0
6
CONTINUOUS
10
283.75
20
4.75
40
1
50
270
51
360
0
LINE
8
0
6
CONTINUOUS
10
284.75
20
4.75
11
284.75
21
19.25
0
ARC
8
0
6
CONTINUOUS
10
283.75
20
19.25
40
1
50
0
51
90
0
LINE
8
0
6
CONTINUOUS
10
283.75
20
20.25
11
268.25
21
20.25
0
ARC
8
0
6
CONTINUOUS
10
268.25
20
19.25
40
1
50
90
51
180
0
LINE
8
0
6
CONTINUOUS
10
267.25
20
19.25
11
267.25
21
4.75
0
ARC
8
0
6
CONTINUOUS
10
268.25
20
4.75
40
1
50
180
51
270
0
LINE
8
0
6
CONTINUOUS
10
268.25
20
20.75
11
283.75
21
20.75
0
ARC
8
0
6
CONTINUOUS
10
283.75
20
21.75
40
1
50
270
51
360
0
LINE
8
0
6
CONTINUOUS
10
284.75
20
21.75
11
284.75
21
36.25
0
ARC
8
0
6
CONTINUOUS
10
283.75
20
36.25
40
1
50
0
51
90
0
LINE
8
0
6
CONTINUOUS
10
283.75
20
37.25
11
268.25
21
37.25
0
ARC
8
0
6
CONTINUOUS
10
268.25
20
36.25
40
1
50
90
51
180
0
LINE
8
0
6
CONTINUOUS
10
267.25
20
36.25
11
267.25
21
21.75
0
ARC
8
0
6
CONTINUOUS
10
268.25
20
21.75
40
1
50
180
51
270
0
LINE
8
0
6
CONTINUOUS
10
268.25
20
37.75
11
283.75
21
37.75
0
ARC
8
0
6
CONTINUOUS
10
283.75
20
38.75
40
1
50
270
51
360
0
LINE
8
0
6
CONTINUOUS
10
284.75
20
38.75
11
284.75
21
53.25
0
ARC
8
0
6
CONTINUOUS
10
283.75
20
53.25
40
1
50
0
51
90
0
LINE
8
0
6
CONTINUOUS
10
283.75
20
54.25
11
268.25
21
54.25
0
ARC
8
0
6
CONTINUOUS
10
268.25
20
53.25
40
1
50
90
51
180
0
LINE
8
0
6
CONTINUOUS
10
267.25
20
53.25
11
267.25
21
38.75
0
ARC
8
0
6
CONTINUOUS
10
268.25
20
38.75
40
1
50
180
51
270
0
LINE
8
0
6
CONTINUOUS
10
268.25
20
54.75
11
283.75
21
54.75
0
ARC
8
0
6
CONTINUOUS
10
283.75
20
55.75
40
1
50
270
51
360
0
LINE
8
0
6
CONTINUOUS
10
284.75
20
55.75
11
284.75
21
70.25
0
ARC
8
0
6
CONTINUOUS
10
283.75
20
70.25
40
1
50
0
51
90
0
LINE
8
0
6
CONTINUOUS
10
283.75
20
71.25
11
268.25
21
71.25
0
ARC
8
0
6
CONTINUOUS
10
268.25
20
70.25
40
1
50
90
51
180
0
LINE
8
0
6
CONTINUOUS
10
267.25
20
70.25
11
267.25
21
55.75
0
ARC
8
0
6
CONTINUOUS
10
268.25
20
55.75
40
1
50
180
51
270
0
LINE
8
0
6
CONTINUOUS
10
268.25
20
71.75
11
283.75
21
71.75
0
ARC
8
0
6
CONTINUOUS
10
283.75
20
72.75
40
1
50
270
51
360
0
LINE
8
0
6
CONTINUOUS
10
284.75
20
72.75
11
284.75
21
87.25
0
ARC
8
0
6
CONTINUOUS
10
283.75
20
87.25
40
1
50
0
51
90
0
LINE
8
0
6
CONTINUOUS
10
283.75
20
88.25
11
268.25
21
88.25
0
ARC
8
0
6
CONTINUOUS
10
268.25
20
87.25
40
1
50
90
51
180
0
LINE
8
0
6
CONTINUOUS
10
267.25
20
87.25
11
267.25
21
72.75
0
ARC
8
0
6
CONTINUOUS
10
268.25
20
72.75
40
1
50
180
51
270
0
LINE
8
0
6
CONTINUOUS
10
250.25
20
-2.25
11
265.75
21
-2.25
0
ARC
8
0
6
CONTINUOUS
10
265.75
20
-1.25
40
1
50
270
51
360
0
LINE
8
0
6
CONTINUOUS
10
266.75
20
-1.25
11
266.75
21
13.25
0
ARC
8
0
6
CONTINUOUS
10
265.75
20
13.25
40
1
50
0
51
90
0
LINE
8
0
6
CONTINUOUS
10
265.75
20
14.25
11
250.25
21
14.25
0
ARC
8
0
6
CONTINUOUS
10
250.25
20
13.25
40
1
50
90
51
180
0
LINE
8
0
6
CONTINUOUS
10
249.25
20
13.25
11
249.25
21
-1.25
0
ARC
8
0
6
CONTINUOUS
10
250.25
20
-1.25
40
1
50
180
51
270
0
LINE
8
0
6
CONTINUOUS
10
250.25
20
14.75
11
265.75
21
14.75
0
ARC
8
0
6
CONTINUOUS
10
265.75
20
15.75
40
1
50
270
51
360
0
LINE
8
0
6
CONTINUOUS
10
266.75
20
15.75
11
266.75
21
30.25
0
ARC
8
0
6
CONTINUOUS
10
265.75
20
30.25
40
1
50
0
51
90
0
LINE
8
0
6
CONTINUOUS
10
265.75
20
31.25
11
250.25
21
31.25
0
ARC
8
0
6
CONTINUOUS
10
250.25
20
30.25
40
1
50
90
51
180
0
LINE
8
0
6
CONTINUOUS
10
249.25
20
30.25
11
249.25
21
15.75
0
ARC
8
0
6
CONTINUOUS
10
250.25
20
15.75
40
1
50
180
51
270
0
LINE
8
0
6
CONTINUOUS
10
250.25
20
31.75
11
265.75
21
31.75
0
ARC
8
0
6
CONTINUOUS
10
265.75
20
32.75
40
1
50
270
51
360
0
LINE
8
0
6
CONTINUOUS
10
266.75
20
32.75
11
266.75
21
47.25
0
ARC
8
0
6
CONTINUOUS
10
265.75
20
47.25
40
1
50
0
51
90
0
LINE
8
0
6
CONTINUOUS
10
265.75
20
48.25
11
250.25
21
48.25
0
ARC
8
0
6
CONTINUOUS
10
250.25
20
47.25
40
1
50
90
51
180
0
LINE
8
0
6
CONTINUOUS
10
249.25
20
47.25
11
249.25
21
32.75
0
ARC
8
0
6
CONTINUOUS
10
250.25
20
32.75
40
1
50
180
51
270
0
LINE
8
0
6
CONTINUOUS
10
250.25
20
48.75
11
265.75
21
48.75
0
ARC
8
0
6
CONTINUOUS
10
265.75
20
49.75
40
1
50
270
51
360
0
LINE
8
0
6
CONTINUOUS
10
266.75
20
49.75
11
266.75
21
64.25
0
ARC
8
0
6
CONTINUOUS
10
265.75
20
64.25
40
1
50
0
51
90
0
LINE
8
0
6
CONTINUOUS
10
265.75
20
65.25
11
250.25
21
65.25
0
ARC
8
0
6
CONTINUOUS
10
250.25
20
64.25
40
1
50
90
51
180
0
LINE
8
0
6
CONTINUOUS
10
249.25
20
64.25
11
249.25
21
49.75
0
ARC
8
0
6
CONTINUOUS
10
250.25
20
49.75
40
1
50
180
51
270
0
LINE
8
0
6
CONTINUOUS
10
250.25
20
65.75
11
265.75
21
65.75
0
ARC
8
0
6
CONTINUOUS
10
265.75
20
66.75
40
1
50
270
51
360
0
LINE
8
0
6
CONTINUOUS
10
266.75
20
66.75
11
266.75
21
81.25
0
ARC
8
0
6
CONTINUOUS
10
265.75
20
81.25
40
1
50
0
51
90
0
LINE
8
0
6
CONTINUOUS
10
265.75
20
82.25
11
250.25
21
82.25
0
ARC
8
0
6
CONTINUOUS
10
250.25
20
81.25
40
1
50
90
51
180
0
LINE
8
0
6
CONTINUOUS
10
249.25
20
81.25
11
249.25
21
66.75
0
ARC
8
0
6
CONTINUOUS
10
250.25
20
66.75
40
1
50
180
51
270
0
LINE
8
0
6
CONTINUOUS
10
231.8003374
20
-9.4704373
11
247.0648576
21
-6.7788906
0
ARC
8
0
6
CONTINUOUS
10
246.8912094
20
-5.7940828
40
1
50
280
51
10
0
LINE
8
0
6
CONTINUOUS
10
247.8760171
20
-5.6204347
11
245.3581186
21
8.6592778
0
ARC
8
0
6
CONTINUOUS
10
244.3733108
20
8.4856296
40
1
50
10
51
100
0
LINE
8
0
6
CONTINUOUS
10
244.1996626
20
9.4704373
11
228.9351424
21
6.7788906
0
ARC
8
0
6
CONTINUOUS
10
229.1087906
20
5.7940828
40
1
50
100
51
190
0
LINE
8
0
6
CONTINUOUS
10
228.1239829
20
5.6204347
11
230.6418814
21
-8.6592778
0
ARC
8
0
6
CONTINUOUS
10
231.6266892
20
-8.4856296
40
1
50
190
51
280
0
LINE
8
0
6
CONTINUOUS
10
232.25
20
12.75
11
247.75
21
12.75
0
ARC
8
0
6
CONTINUOUS
10
247.75
20
13.75
40
1
50
270
51
360
0
LINE
8
0
6
CONTINUOUS
10
248.75
20
13.75
11
248.75
21
28.25
0
ARC
8
0
6
CONTINUOUS
10
247.75
20
28.25
40
1
50
0
51
90
0
LINE
8
0
6
CONTINUOUS
10
247.75
20
29.25
11
232.25
21
29.25
0
ARC
8
0
6
CONTINUOUS
10
232.25
20
28.25
40
1
50
90
51
180
0
LINE
8
0
6
CONTINUOUS
10
231.25
20
28.25
11
231.25
21
13.75
0
ARC
8
0
6
CONTINUOUS
10
232.25
20
13.75
40
1
50
180
51
270
0
LINE
8
0
6
CONTINUOUS
10
232.25
20
29.75
11
247.75
21
29.75
0
ARC
8
0
6
CONTINUOUS
10
247.75
20
30.75
40
1
50
270
51
360
0
LINE
8
0
6
CONTINUOUS
10
248.75
20
30.75
11
248.75
21
45.25
0
ARC
8
0
6
CONTINUOUS
10
247.75
20
45.25
40
1
50
0
51
90
0
LINE
8
0
6
CONTINUOUS
10
247.75
20
46.25
11
232.25
21
46.25
0
ARC
8
0
6
CONTINUOUS
10
232.25
20
45.25
40
1
50
90
51
180
0
LINE
8
0
6
CONTINUOUS
10
231.25
20
45.25
11
231.25
21
30.75
0
ARC
8
0
6
CONTINUOUS
10
232.25
20
30.75
40
1
50
180
51
270
0
LINE
8
0
6
CONTINUOUS
10
232.25
20
46.75
11
247.75
21
46.75
0
ARC
8
0
6
CONTINUOUS
10
247.75
20
47.75
40
1
50
270
51
360
0
LINE
8
0
6
CONTINUOUS
10
248.75
20
47.75
11
248.75
21
62.25
0
ARC
8
0
6
CONTINUOUS
10
247.75
20
62.25
40
1
50
0
51
90
0
LINE
8
0
6
CONTINUOUS
10
247.75
20
63.25
11
232.25
21
63.25
0
ARC
8
0
6
CONTINUOUS
10
232.25
20
62.25
40
1
50
90
51
180
0
LINE
8
0
6
CONTINUOUS
10
231.25
20
62.25
11
231.25
21
47.75
0
ARC
8
0
6
CONTINUOUS
10
232.25
20
47.75
40
1
50
180
51
270
0
LINE
8
0
6
CONTINUOUS
10
232.25
20
63.75
11
247.75
21
63.75
0
ARC
8
0
6
CONTINUOUS
10
247.75
20
64.75
40
1
50
270
51
360
0
LINE
8
0
6
CONTINUOUS
10
248.75
20
64.75
11
248.75
21
79.25
0
ARC
8
0
6
CONTINUOUS
10
247.75
20
79.25
40
1
50
0
51
90
0
LINE
8
0
6
CONTINUOUS
10
247.75
20
80.25
11
232.25
21
80.25
0
ARC
8
0
6
CONTINUOUS
10
232.25
20
79.25
40
1
50
90
51
180
0
LINE
8
0
6
CONTINUOUS
10
231.25
20
79.25
11
231.25
21
64.75
0
ARC
8
0
6
CONTINUOUS
10
232.25
20
64.75
40
1
50
180
51
270
0
LINE
8
0
6
CONTINUOUS
10
222.5627174
20
9.3329008
11
230.9422109
21
-13.6895684
0
ARC
8
0
6
CONTINUOUS
10
223.1621154
20
4.7622639
40
1
50
20
51
110
0
LINE
8
0
6
CONTINUOUS
10
222.8200952
20
5.7019565
11
209.1945522
21
0.7426644
0
ARC
8
0
6
CONTINUOUS
10
209.5365724
20
-0.1970282
40
1
50
110
51
200
0
LINE
8
0
6
CONTINUOUS
10
207.0577891
20
3.6895684
11
215.4372826
21
-19.3329008
0
ARC
8
0
6
CONTINUOUS
10
214.8378846
20
-14.7622639
40
1
50
200
51
290
0
LINE
8
0
6
CONTINUOUS
10
215.1799048
20
-15.7019565
11
228.8054478
21
-10.7426644
0
ARC
8
0
6
CONTINUOUS
10
228.4634276
20
-9.8029718
40
1
50
290
51
20
0
LINE
8
0
6
CONTINUOUS
10
214.25
20
12.75
11
229.75
21
12.75
0
ARC
8
0
6
CONTINUOUS
10
229.75
20
13.75
40
1
50
270
51
360
0
LINE
8
0
6
CONTINUOUS
10
230.75
20
13.75
11
230.75
21
28.25
0
ARC
8
0
6
CONTINUOUS
10
229.75
20
28.25
40
1
50
0
51
90
0
LINE
8
0
6
CONTINUOUS
10
229.75
20
29.25
11
214.25
21
29.25
0
ARC
8
0
6
CONTINUOUS
10
214.25
20
28.25
40
1
50
90
51
180
0
LINE
8
0
6
CONTINUOUS
10
213.25
20
28.25
11
213.25
21
13.75
0
ARC
8
0
6
CONTINUOUS
10
214.25
20
13.75
40
1
50
180
51
270
0
LINE
8
0
6
CONTINUOUS
10
214.25
20
29.75
11
229.75
21
29.75
0
ARC
8
0
6
CONTINUOUS
10
229.75
20
30.75
40
1
50
270
51
360
0
LINE
8
0
6
CONTINUOUS
10
230.75
20
30.75
11
230.75
21
45.25
0
ARC
8
0
6
CONTINUOUS
10
229.75
20
45.25
40
1
50
0
51
90
0
LINE
8
0
6
CONTINUOUS
10
229.75
20
46.25
11
214.25
21
46.25
0
ARC
8
0
6
CONTINUOUS
10
214.25
20
45.25
40
1
50
90
51
180
0
LINE
8
0
6
CONTINUOUS
10
213.25
20
45.25
11
213.25
21
30.75
0
ARC
8
0
6
CONTINUOUS
10
214.25
20
30.75
40
1
50
180
51
270
0
LINE
8
0
6
CONTINUOUS
10
214.25
20
46.75
11
229.75
21
46.75
0
ARC
8
0
6
CONTINUOUS
10
229.75
20
47.75
40
1
50
270
51
360
0
LINE
8
0
6
CONTINUOUS
10
230.75
20
47.75
11
230.75
21
62.25
0
ARC
8
0
6
CONTINUOUS
10
229.75
20
62.25
40
1
50
0
51
90
0
LINE
8
0
6
CONTINUOUS
10
229.75
20
63.25
11
214.25
21
63.25
0
ARC
8
0
6
CONTINUOUS
10
214.25
20
62.25
40
1
50
90
51
180
0
LINE
8
0
6
CONTINUOUS
10
213.25
20
62.25
11
213.25
21
47.75
0
ARC
8
0
6
CONTINUOUS
10
214.25
20
47.75
40
1
50
180
51
270
0
LINE
8
0
6
CONTINUOUS
10
214.25
20
63.75
11
229.75
21
63.75
0
ARC
8
0
6
CONTINUOUS
10
229.75
20
64.75
40
1
50
270
51
360
0
LINE
8
0
6
CONTINUOUS
10
230.75
20
64.75
11
230.75
21
79.25
0
ARC
8
0
6
CONTINUOUS
10
229.75
20
79.25
40
1
50
0
51
90
0
LINE
8
0
6
CONTINUOUS
10
229.75
20
80.25
11
214.25
21
80.25
0
ARC
8
0
6
CONTINUOUS
10
214.25
20
79.25
40
1
50
90
51
180
0
LINE
8
0
6
CONTINUOUS
10
213.25
20
79.25
11
213.25
21
64.75
0
ARC
8
0
6
CONTINUOUS
10
214.25
20
64.75
40
1
50
180
51
270
0
LINE
8
0
6
CONTINUOUS
10
205.6482502
20
3.1765382
11
214.0277437
21
-19.845931
0
ARC
8
0
6
CONTINUOUS
10
206.2476482
20
-1.3940987
40
1
50
20
51
110
0
LINE
8
0
6
CONTINUOUS
10
205.905628
20
-0.4544061
11
192.280085
21
-5.4136982
0
ARC
8
0
6
CONTINUOUS
10
192.6221052
20
-6.3533908
40
1
50
110
51
200
0
LINE
8
0
6
CONTINUOUS
10
190.1433219
20
-2.4667942
11
198.5228154
21
-25.4892634
0
ARC
8
0
6
CONTINUOUS
10
197.9234174
20
-20.9186265
40
1
50
200
51
290
0
LINE
8
0
6
CONTINUOUS
10
198.2654376
20
-21.8583191
11
211.8909806
21
-16.899027
0
ARC
8
0
6
CONTINUOUS
10
211.5489604
20
-15.9593344
40
1
50
290
51
20
0
LINE
8
0
6
CONTINUOUS
10
189.7581179
20
0.0534475
11
204.3233535
21
5.3547597
0
ARC
8
0
6
CONTINUOUS
10
203.9813334
20
6.2944523
40
1
50
290
51
20
0
LINE
8
0
6
CONTINUOUS
10
204.921026
20
6.6364725
11
199.9617339
21
20.2620155
0
ARC
8
0
6
CONTINUOUS
10
199.0220413
20
19.9199953
40
1
50
20
51
110
0
LINE
8
0
6
CONTINUOUS
10
198.6800211
20
20.8596879
11
184.1147855
21
15.5583757
0
ARC
8
0
6
CONTINUOUS
10
184.4568056
20
14.6186831
40
1
50
110
51
200
0
LINE
8
0
6
CONTINUOUS
10
183.517113
20
14.2766629
11
188.4764051
21
0.6511199
0
ARC
8
0
6
CONTINUOUS
10
189.4160977
20
0.9931401
40
1
50
200
51
290
0
ARC
8
0
6
CONTINUOUS
10
99.9974817
20
-14.0315886
40
1
50
160
51
250
0
LINE
8
0
6
CONTINUOUS
10
99.6554616
20
-14.9712812
11
113.2810046
21
-19.9305733
0
ARC
8
0
6
CONTINUOUS
10
113.6230247
20
-18.9908806
40
1
50
250
51
340
0
ARC
8
0
6
CONTINUOUS
10
122.0025183
20
4.0315886
40
1
50
340
51
70
0
LINE
8
0
6
CONTINUOUS
10
122.3445384
20
4.9712812
11
108.7189954
21
9.9305733
0
ARC
8
0
6
CONTINUOUS
10
108.3769753
20
8.9908806
40
1
50
70
51
160
0
ARC
8
0
6
CONTINUOUS
10
116.9119489
20
-20.1879512
40
1
50
160
51
250
0
LINE
8
0
6
CONTINUOUS
10
116.5699288
20
-21.1276438
11
130.1954718
21
-26.0869359
0
ARC
8
0
6
CONTINUOUS
10
130.5374919
20
-25.1472432
40
1
50
250
51
340
0
ARC
8
0
6
CONTINUOUS
10
138.9169855
20
-2.124774
40
1
50
340
51
70
0
LINE
8
0
6
CONTINUOUS
10
139.2590056
20
-1.1850814
11
125.6334626
21
3.7742107
0
ARC
8
0
6
CONTINUOUS
10
125.2914425
20
2.834518
40
1
50
70
51
160
0
ARC
8
0
6
CONTINUOUS
10
221.6230247
20
8.9908806
40
1
50
20
51
110
0
LINE
8
0
6
CONTINUOUS
10
221.2810046
20
9.9305733
11
207.6554616
21
4.9712812
0
ARC
8
0
6
CONTINUOUS
10
207.9974817
20
4.0315886
40
1
50
110
51
200
0
ARC
8
0
6
CONTINUOUS
10
216.3769753
20
-18.9908806
40
1
50
200
51
290
0
LINE
8
0
6
CONTINUOUS
10
216.7189954
20
-19.9305733
11
230.3445384
21
-14.9712812
0
ARC
8
0
6
CONTINUOUS
10
230.0025183
20
-14.0315886
40
1
50
290
51
20
0
ARC
8
0
6
CONTINUOUS
10
204.7085575
20
2.834518
40
1
50
20
51
110
0
LINE
8
0
6
CONTINUOUS
10
204.3665374
20
3.7742107
11
190.7409944
21
-1.1850814
0
ARC
8
0
6
CONTINUOUS
10
191.0830145
20
-2.124774
40
1
50
110
51
200
0
ARC
8
0
6
CONTINUOUS
10
199.4625081
20
-25.1472432
40
1
50
200
51
290
0
LINE
8
0
6
CONTINUOUS
10
199.8045282
20
-26.0869359
11
213.4300712
21
-21.1276438
0
ARC
8
0
6
CONTINUOUS
10
213.0880511
20
-20.1879512
40
1
50
290
51
20
0
ENDSEC
0
EOF