0
SECTION
2
HEADER
9
$INSUNITS
70
4
0
ENDSEC
0
SECTION
2
TABLES
0
TABLE
2
LTYPE
0
LTYPE
72
65
70
0
2
CONTINUOUS
3
______
73
0
40
0
0
LTYPE
72
65
70
0
2
DASHED
3
_ _ _ 
73
2
40
7.5
49
5
49
-2.5
0
LTYPE
72
65
70
0
2
DOTTED
3
. . . 
73
2
40
1.5
49
0.5
49
-1
0
ENDTAB
0
TABLE
2
LAYER
0
ENDTAB
0
ENDSEC
0
SECTION
2
ENTITIES
0
LINE
8
0
6
CONTINUOUS
10
-9
20
-8.5
11
27
21
-8.5
0
LINE
8
0
6
CONTINUOUS
10
-9
20
-8.5
11
-9
21
76.5
0
LINE
8
0
6
CONTINUOUS
10
-9
20
76.5
11
27
21
76.5
0
LINE
8
0
6
CONTINUOUS
10
27
20
-8.5
11
27
21
-0.5
0
LINE
8
0
6
CONTINUOUS
10
27
20
-0.5
11
45
21
-0.5
0
LINE
8
0
6
CONTINUOUS
10
45
20
-0.5
11
45
21
3.5
0
LINE
8
0
6
CONTINUOUS
10
45
20
84.5
11
27
21
84.5
0
LINE
8
0
6
CONTINUOUS
10
27
20
84.5
11
27
21
76.5
0
LINE
8
0
6
CONTINUOUS
10
45
20
3.5
11
63
21
3.5
0
LINE
8
0
6
CONTINUOUS
10
63
20
82.5
11
63
21
88.5
0
LINE
8
0
6
CONTINUOUS
10
63
20
88.5
11
45
21
88.5
0
LINE
8
0
6
CONTINUOUS
10
45
20
88.5
11
45
21
84.5
0
LINE
8
0
6
CONTINUOUS
10
63
20
-2.5
11
81
21
-2.5
0
LINE
8
0
6
CONTINUOUS
10
81
20
-2.5
11
81
21
12.5
0
LINE
8
0
6
CONTINUOUS
10
63
20
3.5
11
63
21
-2.5
0
LINE
8
0
6
CONTINUOUS
10
81
20
80.5
11
81
21
82.5
0
LINE
8
0
6
CONTINUOUS
10
81
20
82.5
11
63
21
82.5
0
LINE
8
0
6
CONTINUOUS
10
81.6607207
20
-6.8080323
11
99.3872603
21
-9.9336995
0
LINE
8
0
6
CONTINUOUS
10
99.3872603
20
-9.9336995
11
102.3392793
21
6.8080323
0
LINE
8
0
6
CONTINUOUS
10
102.3392793
20
6.8080323
11
84.6127397
21
9.9336995
0
LINE
8
0
6
CONTINUOUS
10
84.6127397
20
9.9336995
11
81.6607207
21
-6.8080323
0
LINE
8
0
6
CONTINUOUS
10
81
20
12.5
11
117
21
12.5
0
LINE
8
0
6
CONTINUOUS
10
81
20
80.5
11
117
21
80.5
0
LINE
8
0
6
CONTINUOUS
10
98.3953408
20
-14.7786792
11
107.6298847
21
10.5930216
0
LINE
8
0
6
CONTINUOUS
10
99.9344314
20
-10.5500624
11
115.909206
21
-16.3644048
0
LINE
8
0
6
CONTINUOUS
10
114.3701153
20
-20.5930216
11
123.6046592
21
4.7786792
0
LINE
8
0
6
CONTINUOUS
10
122.0655686
20
0.5500624
11
106.090794
21
6.3644048
0
LINE
8
0
6
CONTINUOUS
10
117
20
12.5
11
117
21
80.5
0
LINE
8
0
6
CONTINUOUS
10
115.309808
20
-20.9350418
11
124.5443519
21
4.436659
0
LINE
8
0
6
CONTINUOUS
10
116.8488986
20
-16.706425
11
132.8236732
21
-22.5207674
0
LINE
8
0
6
CONTINUOUS
10
131.2845825
20
-26.7493842
11
140.5191264
21
-1.3776834
0
LINE
8
0
6
CONTINUOUS
10
138.9800358
20
-5.6063002
11
123.0052612
21
0.2080422
0
LINE
8
0
6
CONTINUOUS
10
124.4165257
20
5.5473617
11
141.3309929
21
-0.6090009
0
LINE
8
0
6
CONTINUOUS
10
141.3309929
20
-0.6090009
11
147.1453353
21
15.3657737
0
LINE
8
0
6
CONTINUOUS
10
147.1453353
20
15.3657737
11
130.2308681
21
21.5221363
0
LINE
8
0
6
CONTINUOUS
10
130.2308681
20
21.5221363
11
124.4165257
21
5.5473617
0
LINE
8
0
6
CONTINUOUS
10
303
20
-8.5
11
339
21
-8.5
0
LINE
8
0
6
CONTINUOUS
10
339
20
-8.5
11
339
21
76.5
0
LINE
8
0
6
CONTINUOUS
10
303
20
76.5
11
339
21
76.5
0
LINE
8
0
6
CONTINUOUS
10
303
20
-0.5
11
303
21
-8.5
0
LINE
8
0
6
CONTINUOUS
10
285
20
-0.5
11
303
21
-0.5
0
LINE
8
0
6
CONTINUOUS
10
285
20
3.5
11
285
21
-0.5
0
LINE
8
0
6
CONTINUOUS
10
303
20
76.5
11
303
21
84.5
0
LINE
8
0
6
CONTINUOUS
10
303
20
84.5
11
285
21
84.5
0
LINE
8
0
6
CONTINUOUS
10
267
20
3.5
11
285
21
3.5
0
LINE
8
0
6
CONTINUOUS
10
285
20
84.5
11
285
21
88.5
0
LINE
8
0
6
CONTINUOUS
10
285
20
88.5
11
267
21
88.5
0
LINE
8
0
6
CONTINUOUS
10
267
20
88.5
11
267
21
82.5
0
LINE
8
0
6
CONTINUOUS
10
249
20
-2.5
11
267
21
-2.5
0
LINE
8
0
6
CONTINUOUS
10
267
20
-2.5
11
267
21
3.5
0
LINE
8
0
6
CONTINUOUS
10
249
20
12.5
11
249
21
-2.5
0
LINE
8
0
6
CONTINUOUS
10
267
20
82.5
11
249
21
82.5
0
LINE
8
0
6
CONTINUOUS
10
249
20
82.5
11
249
21
80.5
0
LINE
8
0
6
CONTINUOUS
10
230.6127397
20
-9.9336995
11
248.3392793
21
-6.8080323
0
LINE
8
0
6
CONTINUOUS
10
248.3392793
20
-6.8080323
11
245.3872603
21
9.9336995
0
LINE
8
0
6
CONTINUOUS
10
245.3872603
20
9.9336995
11
227.6607207
21
6.8080323
0
LINE
8
0
6
CONTINUOUS
10
227.6607207
20
6.8080323
11
230.6127397
21
-9.9336995
0
LINE
8
0
6
CONTINUOUS
10
213
20
12.5
11
249
21
12.5
0
LINE
8
0
6
CONTINUOUS
10
213
20
80.5
11
249
21
80.5
0
LINE
8
0
6
CONTINUOUS
10
222.3701153
20
10.5930216
11
231.6046592
21
-14.7786792
0
LINE
8
0
6
CONTINUOUS
10
223.909206
20
6.3644048
11
207.9344314
21
0.5500624
0
LINE
8
0
6
CONTINUOUS
10
206.3953408
20
4.7786792
11
215.6298847
21
-20.5930216
0
LINE
8
0
6
CONTINUOUS
10
214.090794
20
-16.3644048
11
230.0655686
21
-10.5500624
0
LINE
8
0
6
CONTINUOUS
10
213
20
12.5
11
213
21
80.5
0
LINE
8
0
6
CONTINUOUS
10
205.4556481
20
4.436659
11
214.690192
21
-20.9350418
0
LINE
8
0
6
CONTINUOUS
10
206.9947388
20
0.2080422
11
191.0199642
21
-5.6063002
0
LINE
8
0
6
CONTINUOUS
10
189.4808736
20
-1.3776834
11
198.7154175
21
-26.7493842
0
LINE
8
0
6
CONTINUOUS
10
197.1763268
20
-22.5207674
11
213.1511014
21
-16.706425
0
LINE
8
0
6
CONTINUOUS
10
188.6690071
20
-0.6090009
11
205.5834743
21
5.5473617
0
LINE
8
0
6
CONTINUOUS
10
205.5834743
20
5.5473617
11
199.7691319
21
21.5221363
0
LINE
8
0
6
CONTINUOUS
10
199.7691319
20
21.5221363
11
182.8546647
21
15.3657737
0
LINE
8
0
6
CONTINUOUS
10
182.8546647
20
15.3657737
11
188.6690071
21
-0.6090009
0
LINE
8
0
6
CONTINUOUS
10
98.3953408
20
-14.7786792
11
114.3701153
21
-20.5930216
0
LINE
8
0
6
CONTINUOUS
10
123.6046592
20
4.7786792
11
107.6298847
21
10.5930216
0
LINE
8
0
6
CONTINUOUS
10
115.309808
20
-20.9350418
11
131.2845825
21
-26.7493842
0
LINE
8
0
6
CONTINUOUS
10
140.5191264
20
-1.3776834
11
124.5443519
21
4.436659
0
LINE
8
0
6
CONTINUOUS
10
222.3701153
20
10.5930216
11
206.3953408
21
4.7786792
0
LINE
8
0
6
CONTINUOUS
10
215.6298847
20
-20.5930216
11
231.6046592
21
-14.7786792
0
LINE
8
0
6
CONTINUOUS
10
205.4556481
20
4.436659
11
189.4808736
21
-1.3776834
0
LINE
8
0
6
CONTINUOUS
10
198.7154175
20
-26.7493842
11
214.690192
21
-20.9350418
0
ENDSEC
0
EOF